<?xml version="1.0" standalone="no"?>
<!DOCTYPE svg PUBLIC "-//W3C//DTD SVG 20010904//EN"
 "http://www.w3.org/TR/2001/REC-SVG-20010904/DTD/svg10.dtd">
<svg version="1.0" xmlns="http://www.w3.org/2000/svg"
 width="700.000000pt" height="700.000000pt" viewBox="0 0 700.000000 700.000000"
 preserveAspectRatio="xMidYMid meet">
<metadata>
Created by potrace 1.14, written by Peter Selinger 2001-2017
</metadata>
<g transform="translate(0.000000,700.000000) scale(0.100000,-0.100000)"
fill="#000000" stroke="none">
<path d="M3251 6909 c-437 -31 -879 -153 -1272 -349 -454 -227 -837 -538
-1164 -945 -165 -205 -372 -560 -478 -820 -428 -1048 -309 -2245 315 -3180
248 -373 529 -662 883 -910 582 -408 1244 -617 1955 -619 317 -1 567 30 860
104 1196 303 2160 1267 2460 2460 76 301 104 532 104 850 0 569 -118 1056
-377 1565 -260 510 -661 958 -1147 1282 -144 96 -238 149 -420 236 -534 258
-1122 369 -1719 326z m414 -740 c475 -44 885 -190 1200 -428 164 -124 345
-325 455 -506 50 -82 150 -282 150 -301 0 -11 -637 -231 -644 -222 -2 1 -23
46 -49 98 -71 147 -141 245 -261 366 -298 300 -686 444 -1196 444 -651 0
-1129 -241 -1450 -730 -156 -238 -251 -514 -307 -885 -25 -170 -25 -657 0
-830 77 -519 260 -904 573 -1205 253 -243 529 -374 914 -435 79 -13 202 -18
500 -22 524 -7 635 5 806 87 81 39 244 143 404 259 l85 61 353 0 354 0 -41
-72 c-163 -294 -403 -514 -756 -690 -375 -188 -695 -233 -1470 -208 -452 14
-702 58 -1005 177 -301 118 -523 263 -745 487 -376 378 -596 877 -675 1536
-18 151 -24 567 -11 736 57 712 278 1242 690 1652 496 493 1236 713 2126 631z
m80 -1104 c399 -60 666 -240 831 -558 25 -49 44 -90 42 -92 -5 -5 -333 -105
-344 -105 -6 0 -29 30 -50 67 -119 206 -326 338 -595 379 -127 19 -366 14
-478 -11 -336 -74 -578 -317 -671 -673 -41 -154 -53 -283 -47 -497 8 -287 50
-461 157 -649 169 -295 438 -449 810 -463 339 -13 652 80 878 260 l62 50 0
259 0 258 -415 0 -415 0 0 165 0 165 585 0 585 0 0 -499 0 -499 -67 -62 c-182
-164 -445 -300 -699 -361 -276 -65 -650 -67 -895 -4 -513 133 -845 509 -945
1070 -26 144 -36 365 -24 524 31 407 142 689 366 921 208 215 469 332 827 370
110 12 379 4 502 -15z m2395 -1475 l0 -1100 -195 0 -195 0 0 1100 0 1100 195
0 195 0 0 -1100z m-843 841 c109 -50 132 -198 45 -285 -56 -57 -126 -69 -198
-37 -107 49 -138 190 -61 278 56 64 134 80 214 44z m163 -1261 l0 -630 -245 0
-245 0 0 185 0 185 75 0 75 0 0 285 0 285 -65 0 -65 0 0 160 0 160 235 0 235
0 0 -630z"/>
</g>
</svg>
